<svg width="54" height="70" viewBox="0 0 54 70" fill="none" xmlns="http://www.w3.org/2000/svg">
<path d="M4.94141 59.7461V8.70312H49.0586V59.7461C49.0586 62.8625 46.5226 65.3984 43.4062 65.3984H10.5938C7.47735 65.3984 4.94141 62.8625 4.94141 59.7461Z" fill="url(#paint0_linear_104_498)" stroke="#F377FF"/>
<path d="M51.6094 8.20312H45.457V59.7461C45.457 60.8944 44.5548 61.7969 43.4062 61.7969H10.5938C9.44518 61.7969 8.54297 60.8944 8.54297 59.7461V8.20312H2.39062C1.24205 8.20312 0.339844 9.10533 0.339844 10.2539V67.9492C0.339844 69.0975 1.24205 70 2.39062 70H51.6094C52.7579 70 53.6602 69.0975 53.6602 67.9492V10.2539C53.6602 9.10533 52.7579 8.20312 51.6094 8.20312ZM18.7969 33.0859H35.2031C36.3367 33.0859 37.2539 32.1687 37.2539 31.0352C37.2539 29.9016 36.3367 28.9844 35.2031 28.9844H18.7969C17.6633 28.9844 16.7461 29.9016 16.7461 31.0352C16.7461 32.1687 17.6633 33.0859 18.7969 33.0859ZM18.7969 41.2891H35.2031C36.3367 41.2891 37.2539 40.3718 37.2539 39.2383C37.2539 38.1047 36.3367 37.1875 35.2031 37.1875H18.7969C17.6633 37.1875 16.7461 38.1047 16.7461 39.2383C16.7461 40.3718 17.6633 41.2891 18.7969 41.2891ZM18.7969 49.4922H35.2031C36.3367 49.4922 37.2539 48.5749 37.2539 47.4414C37.2539 46.3079 36.3367 45.3906 35.2031 45.3906H18.7969C17.6633 45.3906 16.7461 46.3079 16.7461 47.4414C16.7461 48.5749 17.6633 49.4922 18.7969 49.4922ZM20.8477 12.3047H33.1523C34.2849 12.3047 35.2031 11.3865 35.2031 10.2539V8.20312C35.2031 6.41266 34.0055 4.79855 32.2912 4.27779L31.2438 3.95937L30.9253 2.91197C30.4046 1.19766 28.7905 0 27 0C25.2095 0 23.5954 1.19766 23.0747 2.91197L22.7563 3.95937L21.7088 4.27779C19.9945 4.79855 18.7969 6.41266 18.7969 8.20312V10.2539C18.7969 11.3865 19.7151 12.3047 20.8477 12.3047Z" fill="url(#paint1_linear_104_498)"/>
<defs>
<linearGradient id="paint0_linear_104_498" x1="27" y1="65.8984" x2="27" y2="8.20312" gradientUnits="userSpaceOnUse">
<stop stop-color="#FFBEF9"/>
<stop offset="1" stop-color="#FFF1FF"/>
</linearGradient>
<linearGradient id="paint1_linear_104_498" x1="27" y1="70" x2="27" y2="0" gradientUnits="userSpaceOnUse">
<stop stop-color="#A93AFF"/>
<stop offset="1" stop-color="#FF81FF"/>
</linearGradient>
</defs>
</svg>
