<svg width="80" height="58" viewBox="0 0 80 58" fill="none" xmlns="http://www.w3.org/2000/svg">
<path d="M32.8125 52.4375H14.0625C12.767 52.4375 11.7188 53.4858 11.7188 54.7812C11.7188 56.0767 12.767 57.125 14.0625 57.125H32.8125C34.108 57.125 35.1562 56.0767 35.1562 54.7812C35.1562 53.4858 34.108 52.4375 32.8125 52.4375ZM44.5312 10.25H2.34375C1.04828 10.25 0 11.2983 0 12.5938V45.4062C0 46.7017 1.04828 47.75 2.34375 47.75H44.5312C45.8267 47.75 46.875 46.7017 46.875 45.4062V12.5938C46.875 11.2983 45.8267 10.25 44.5312 10.25ZM77.6562 0.875H54.2188C52.9061 0.875 51.875 1.90609 51.875 3.21875V54.7812C51.875 56.0936 52.9061 57.125 54.2188 57.125H77.6562C78.9689 57.125 80 56.0936 80 54.7812V3.21875C80 1.90609 78.9689 0.875 77.6562 0.875ZM68.2812 47.75H63.5938C62.2811 47.75 61.25 46.7186 61.25 45.4062C61.25 44.0936 62.2811 43.0625 63.5938 43.0625H68.2812C69.5939 43.0625 70.625 44.0936 70.625 45.4062C70.625 46.7186 69.5939 47.75 68.2812 47.75ZM68.2812 24.3125H63.5938C62.2811 24.3125 61.25 23.2811 61.25 21.9688C61.25 20.6561 62.2811 19.625 63.5938 19.625H68.2812C69.5939 19.625 70.625 20.6561 70.625 21.9688C70.625 23.2811 69.5939 24.3125 68.2812 24.3125ZM68.2812 14.9375H63.5938C62.2811 14.9375 61.25 13.9061 61.25 12.5938C61.25 11.2811 62.2811 10.25 63.5938 10.25H68.2812C69.5939 10.25 70.625 11.2811 70.625 12.5938C70.625 13.9061 69.5939 14.9375 68.2812 14.9375Z" fill="url(#paint0_linear_104_214)"/>
<defs>
<linearGradient id="paint0_linear_104_214" x1="40" y1="57.125" x2="40" y2="0.875" gradientUnits="userSpaceOnUse">
<stop stop-color="#5558FF"/>
<stop offset="1" stop-color="#00C0FF"/>
</linearGradient>
</defs>
</svg>
