<svg width="80" height="58" viewBox="0 0 80 58" fill="none" xmlns="http://www.w3.org/2000/svg">
<path d="M54.2188 36.0312C59.3869 36.0312 63.5938 31.8267 63.5938 26.6562C63.5938 21.4858 59.3869 17.2812 54.2188 17.2812C49.0506 17.2812 44.8438 21.4858 44.8438 26.6562C44.8438 31.8267 49.0506 36.0312 54.2188 36.0312ZM77.6562 19.625H67.4375C66.6873 19.625 65.9375 19.9998 65.5155 20.6561C65.0467 21.2655 64.953 22.1092 65.2342 22.8125C65.7031 23.9844 65.9375 25.2967 65.9375 26.6562C65.9375 33.125 60.6875 38.375 54.2188 38.375C47.75 38.375 42.5 33.125 42.5 26.6562C42.5 25.2967 42.7344 23.9844 43.2033 22.8125C43.4845 22.1092 43.3906 21.2655 42.922 20.6561C42.5 19.9998 41.7502 19.625 41 19.625H2.34375C1.03109 19.625 0 20.6561 0 21.9688V50.0938C0 51.4061 1.03109 52.4375 2.34375 52.4375H9.375L11.7188 57.125L14.0625 52.4375H65.9375L68.2812 57.125L70.625 52.4375H77.6562C78.9689 52.4375 80 51.4061 80 50.0938V21.9688C80 20.6561 78.9689 19.625 77.6562 19.625Z" fill="url(#paint0_linear_104_436)"/>
<path d="M72.2655 8.61169L72.2656 8.61178C73.0834 9.4296 73.0834 10.7544 72.2654 11.5724L72.2654 11.5725C71.8565 11.9815 71.3211 12.1859 70.7852 12.1859C70.2493 12.1859 69.714 11.9816 69.305 11.5725C65.271 7.53632 59.9112 5.3125 54.2188 5.3125C48.5263 5.3125 43.1665 7.53631 39.1326 11.5724C38.3148 12.3903 36.9898 12.3903 36.1719 11.5724C35.3541 10.7546 35.3541 9.42962 36.1719 8.61178L36.172 8.61169C40.9958 3.7834 47.405 1.125 54.2188 1.125C61.0325 1.125 67.4417 3.7834 72.2655 8.61169ZM54.2188 0.875C47.3386 0.875 40.8658 3.55984 35.9952 8.435L69.1281 11.7492C69.5859 12.207 70.1856 12.4359 70.7852 12.4359C71.3847 12.4359 71.9845 12.207 72.4422 11.7492C73.3578 10.8336 73.3578 9.35047 72.4423 8.435C67.5717 3.55984 61.0989 0.875 54.2188 0.875ZM39.0308 21.2135L39.0309 21.2135L39.0332 21.2071C41.2477 14.8399 47.3398 10.5 54.2188 10.5C61.0971 10.5 67.189 14.8391 69.404 21.2997L69.4037 21.2998L69.4084 21.3115C70.0515 22.9192 70.375 24.7151 70.375 26.6562C70.375 35.5651 63.1276 42.8125 54.2188 42.8125C45.3099 42.8125 38.0625 35.5651 38.0625 26.6562C38.0625 24.7161 38.3857 22.9182 39.0308 21.2135ZM11.7188 56.875C10.5442 56.875 9.625 55.9555 9.625 54.7812V52.6875H13.8125V54.7812C13.8125 55.9555 12.8933 56.875 11.7188 56.875ZM68.2812 56.875C67.1067 56.875 66.1875 55.9555 66.1875 54.7812V52.6875H70.375V54.7812C70.375 55.9555 69.4558 56.875 68.2812 56.875ZM11.7188 38.625H25.7812C26.9386 38.625 27.875 39.5614 27.875 40.7188C27.875 41.8761 26.9386 42.8125 25.7812 42.8125H11.7188C10.5614 42.8125 9.625 41.8761 9.625 40.7188C9.625 39.5614 10.5614 38.625 11.7188 38.625ZM11.7188 29.25H25.7812C26.9386 29.25 27.875 30.1864 27.875 31.3438C27.875 32.5011 26.9386 33.4375 25.7812 33.4375H11.7188C10.5614 33.4375 9.625 32.5011 9.625 31.3438C9.625 30.1864 10.5614 29.25 11.7188 29.25ZM46.9375 26.6562C46.9375 30.6848 50.1901 33.9375 54.2188 33.9375C58.2474 33.9375 61.5 30.6848 61.5 26.6562C61.5 22.6274 58.2474 19.375 54.2188 19.375C50.1901 19.375 46.9375 22.6274 46.9375 26.6562Z" fill="url(#paint1_linear_104_436)" stroke="#FFC600" stroke-width="0.5"/>
<defs>
<linearGradient id="paint0_linear_104_436" x1="40" y1="57.125" x2="40" y2="17.2812" gradientUnits="userSpaceOnUse">
<stop stop-color="#FD5900"/>
<stop offset="1" stop-color="#FFDE00"/>
</linearGradient>
<linearGradient id="paint1_linear_104_436" x1="41.252" y1="43.0625" x2="41.252" y2="0.875" gradientUnits="userSpaceOnUse">
<stop stop-color="#FFE59A"/>
<stop offset="1" stop-color="#FFFFD5"/>
</linearGradient>
</defs>
</svg>
