<svg width="58" height="70" viewBox="0 0 58 70" fill="none" xmlns="http://www.w3.org/2000/svg">
<path d="M10.543 0.5H16.2803L22.34 32.8179L16.2712 69.5H6.44141C5.56902 69.5 4.89062 68.8214 4.89062 67.9492V6.15234C4.89062 3.02405 7.41468 0.5 10.543 0.5ZM26.9492 6.65234H47.457C49.4799 6.65234 51.0586 8.23099 51.0586 10.2539V26.6602C51.0586 28.6831 49.4799 30.2617 47.457 30.2617H26.9492C24.9263 30.2617 23.3477 28.6831 23.3477 26.6602V10.2539C23.3477 8.23099 24.9263 6.65234 26.9492 6.65234ZM26.9492 47.668H47.457C49.4799 47.668 51.0586 49.2466 51.0586 51.2695C51.0586 53.2924 49.4799 54.8711 47.457 54.8711H26.9492C24.9263 54.8711 23.3477 53.2924 23.3477 51.2695C23.3477 49.2466 24.9263 47.668 26.9492 47.668Z" fill="url(#paint0_linear_104_462)" stroke="#FFDB00"/>
<path d="M55.6602 0H16.6953V70H55.6602C56.8087 70 57.7109 69.0975 57.7109 67.9492V2.05078C57.7109 0.902207 56.8087 0 55.6602 0ZM47.457 53.3203H26.9492C25.8006 53.3203 24.8984 52.4178 24.8984 51.2695C24.8984 50.121 25.8006 49.2188 26.9492 49.2188H47.457C48.6056 49.2188 49.5078 50.121 49.5078 51.2695C49.5078 52.4178 48.6056 53.3203 47.457 53.3203ZM49.5078 26.6602C49.5078 27.8085 48.6056 28.7109 47.457 28.7109H26.9492C25.8006 28.7109 24.8984 27.8085 24.8984 26.6602V10.2539C24.8984 9.10533 25.8006 8.20312 26.9492 8.20312H47.457C48.6056 8.20312 49.5078 9.10533 49.5078 10.2539V26.6602ZM10.543 57.4219H2.33984C1.20631 57.4219 0.289062 58.3391 0.289062 59.4727C0.289062 60.6062 1.20631 61.5234 2.33984 61.5234H10.543C11.6765 61.5234 12.5938 60.6062 12.5938 59.4727C12.5938 58.3391 11.6765 57.4219 10.543 57.4219ZM10.543 45.1172H2.33984C1.20631 45.1172 0.289062 46.0344 0.289062 47.168C0.289062 48.3015 1.20631 49.2188 2.33984 49.2188H10.543C11.6765 49.2188 12.5938 48.3015 12.5938 47.168C12.5938 46.0344 11.6765 45.1172 10.543 45.1172ZM10.543 32.8125H2.33984C1.20631 32.8125 0.289062 33.7297 0.289062 34.8633C0.289062 35.9968 1.20631 36.9141 2.33984 36.9141H10.543C11.6765 36.9141 12.5938 35.9968 12.5938 34.8633C12.5938 33.7297 11.6765 32.8125 10.543 32.8125ZM10.543 20.5078H2.33984C1.20631 20.5078 0.289062 21.4251 0.289062 22.5586C0.289062 23.6921 1.20631 24.6094 2.33984 24.6094H10.543C11.6765 24.6094 12.5938 23.6921 12.5938 22.5586C12.5938 21.4251 11.6765 20.5078 10.543 20.5078ZM10.543 8.20312H2.33984C1.20631 8.20312 0.289062 9.12037 0.289062 10.2539C0.289062 11.3874 1.20631 12.3047 2.33984 12.3047H10.543C11.6765 12.3047 12.5938 11.3874 12.5938 10.2539C12.5938 9.12037 11.6765 8.20312 10.543 8.20312Z" fill="url(#paint1_linear_104_462)"/>
<defs>
<linearGradient id="paint0_linear_104_462" x1="27.9746" y1="70" x2="27.9746" y2="0" gradientUnits="userSpaceOnUse">
<stop stop-color="#FFE59A"/>
<stop offset="1" stop-color="#FFFFD5"/>
</linearGradient>
<linearGradient id="paint1_linear_104_462" x1="29" y1="70" x2="29" y2="0" gradientUnits="userSpaceOnUse">
<stop stop-color="#FD5900"/>
<stop offset="1" stop-color="#FFDE00"/>
</linearGradient>
</defs>
</svg>
