<svg width="70" height="70" viewBox="0 0 70 70" fill="none" xmlns="http://www.w3.org/2000/svg">
<path d="M34.997 0C28.0642 0 21.3597 2.03461 15.6084 5.88346C4.92283 13.0205 -0.940668 25.7318 0.30897 38.6102C1.83489 54.4102 14.3228 67.4629 30.0147 69.6476C34.7712 70.2723 38.7664 70.4237 42.2262 66.9922C44.1766 65.0597 45.25 62.4844 45.25 59.741V10.253C45.25 4.64995 40.8244 0.0500348 34.997 0ZM59.6043 0C57.3414 0 55.5031 1.84035 55.5031 4.10121V54.6985C56.7085 53.9916 58.1263 53.6172 59.6043 53.6172C61.0822 53.6172 62.5 53.9916 63.6974 54.6946C63.7014 54.6946 63.7055 54.6966 63.7055 54.6966V4.10121C63.7055 1.84035 61.8672 0 59.6043 0Z" fill="url(#paint0_linear_104_288)"/>
<path d="M13.6979 32.6955C14.4629 33.0139 15.2598 33.1642 16.0449 33.1642C18.456 33.1642 20.7549 31.7344 21.7361 29.3693C21.7361 29.3673 21.7361 29.3673 21.7361 29.3654C23.0338 26.2334 21.5398 22.6268 18.4079 21.3292C16.8859 20.7003 15.2118 20.7003 13.6979 21.3292C12.1799 21.9599 10.9985 23.1415 10.3696 24.6574C9.74078 26.1774 9.73682 27.8496 10.3696 29.3674C10.9985 30.8873 12.18 32.0687 13.6979 32.6955ZM24.7961 10.231C23.2781 10.8599 22.0927 12.0434 21.4638 13.5612C20.835 15.0811 20.8391 16.7533 21.4678 18.2672C22.445 20.6342 24.744 22.066 27.159 22.066C27.944 22.066 28.737 21.9178 29.5021 21.5994H29.506C32.638 20.3018 34.1319 16.6952 32.8343 13.5593C31.5367 10.4313 27.9361 8.93737 24.7961 10.231ZM21.7361 40.6286C21.7361 40.6266 21.7361 40.6266 21.7361 40.6247C20.4385 37.4888 16.8178 36.0048 13.7019 37.2985C12.1799 37.9253 10.9985 39.1068 10.3696 40.6267C9.73682 42.1447 9.74078 43.8168 10.3696 45.3327C10.9985 46.8526 12.1799 48.0342 13.6979 48.665C14.4549 48.9794 15.2558 49.1376 16.053 49.1376C16.8501 49.1376 17.647 48.9794 18.408 48.665C21.54 47.3672 23.0338 43.7606 21.7361 40.6286ZM29.506 48.3946C29.506 48.3946 29.506 48.3946 29.5021 48.3946C26.378 47.0969 22.7614 48.5868 21.4678 51.7228C20.8389 53.2408 20.835 54.9129 21.4638 56.4328C22.0927 57.9508 23.2781 59.1343 24.7961 59.763C25.5611 60.0793 26.3581 60.2296 27.1391 60.2296C29.5541 60.2296 31.853 58.7977 32.8343 56.4307C34.1319 53.2988 32.638 49.6922 29.506 48.3946ZM64.7428 46.7744C61.6428 44.9602 57.5617 44.9602 54.4698 46.7744C51.2657 48.6449 49.3512 51.9591 49.3512 55.6398C49.3512 60.7723 56.7166 68.0275 58.1904 69.4293C58.5869 69.8057 59.0956 69.994 59.6043 69.994C60.1129 69.994 60.6215 69.8057 61.0181 69.4293C62.4919 68.0275 69.8573 60.7723 69.8573 55.6398C69.8573 51.9591 67.9428 48.6449 64.7428 46.7744Z" fill="url(#paint1_linear_104_288)"/>
<defs>
<linearGradient id="paint0_linear_104_288" x1="31.9241" y1="70" x2="31.9241" y2="0" gradientUnits="userSpaceOnUse">
<stop stop-color="#A93AFF"/>
<stop offset="1" stop-color="#FF81FF"/>
</linearGradient>
<linearGradient id="paint1_linear_104_288" x1="39.8769" y1="69.994" x2="39.8769" y2="9.76513" gradientUnits="userSpaceOnUse">
<stop stop-color="#FFBEF9"/>
<stop offset="1" stop-color="#FFF1FF"/>
</linearGradient>
</defs>
</svg>
