<svg width="54" height="70" viewBox="0 0 54 70" fill="none" xmlns="http://www.w3.org/2000/svg">
<path d="M48.5332 58.8163L45.3338 49.2188L46.3185 47.168L43.9395 45.1172C43.9395 45.1172 36.2695 22.0254 36.1875 21.8203C35.9824 21 35.2853 20.4256 34.465 20.3027C33.6447 20.2206 32.8242 20.6306 32.4142 21.3689C31.3066 23.3789 29.2559 24.6094 27 24.6094C24.7441 24.6094 22.6934 23.3789 21.5859 21.369C21.1759 20.6307 20.3145 20.2207 19.5352 20.3029C18.7148 20.4258 18.0176 21 17.8126 21.8204C17.7305 22.0254 10.0605 45.1172 10.0605 45.1172L6.94336 47.168L8.70703 49.2188L5.50781 58.8163C5.30274 59.4315 5.38463 60.1288 5.79492 60.662C6.16393 61.1952 6.7793 61.5234 7.43541 61.5234H8.8711L10.0865 63.6389L13.2188 61.5234C15.8027 61.4824 18.0996 59.8005 18.9199 57.3397C19.6989 54.9608 20.6424 52.1717 21.6268 49.2188L24.0059 47.3319L22.9805 45.1172C24.457 40.7695 25.8924 36.4629 26.9999 33.1404L31.0194 45.1172L28.6717 47.3575L32.373 49.2188L35.0799 57.3397C35.9003 59.8005 38.1971 61.4823 40.7811 61.5234L43.8983 63.123L45.1288 61.5234H46.6055C47.2616 61.5234 47.877 61.1953 48.287 60.662C48.6564 60.1288 48.7793 59.4316 48.5332 58.8163ZM27 12.3047C28.1335 12.3047 29.0508 11.3874 29.0508 10.2539V2.05078C29.0508 0.917246 28.1335 0 27 0C25.8665 0 24.9492 0.917246 24.9492 2.05078V10.2539C24.9492 11.3874 25.8665 12.3047 27 12.3047ZM27 22.5586C29.2991 22.5586 31.1016 20.7561 31.1016 18.457C31.1016 16.158 29.2991 14.3555 27 14.3555C24.7009 14.3555 22.8984 16.158 22.8984 18.457C22.8984 20.7561 24.7009 22.5586 27 22.5586Z" fill="url(#paint0_linear_104_454)"/>
<path d="M10.0605 45.1172H2.39062C1.24205 45.1172 0.339844 46.0194 0.339844 47.168C0.339844 48.3163 1.24205 49.2188 2.39062 49.2188H8.70689L10.0605 45.1172ZM51.6094 45.1172H43.9395L45.3338 49.2188H51.6094C52.7579 49.2188 53.6602 48.3163 53.6602 47.168C53.6602 46.0194 52.7579 45.1172 51.6094 45.1172ZM35.2031 8.20312H18.7969C17.6483 8.20312 16.7461 9.10533 16.7461 10.2539V18.457C16.7461 20.1385 17.1561 21.8203 17.9766 23.3379C19.8223 26.6602 23.2677 28.7109 27 28.7109C30.7323 28.7109 34.1777 26.6602 36.0234 23.3379C36.8438 21.8203 37.2539 20.1385 37.2539 18.457V10.2539C37.2539 9.10533 36.3517 8.20312 35.2031 8.20312ZM27 20.5078C25.8514 20.5078 24.9492 19.6053 24.9492 18.457C24.9492 17.3085 25.8514 16.4062 27 16.4062C28.1486 16.4062 29.0508 17.3085 29.0508 18.457C29.0508 19.6053 28.1486 20.5078 27 20.5078ZM22.9806 45.1172C22.5293 46.4704 22.0781 47.8652 21.627 49.2188H32.373C31.9219 47.8652 31.4708 46.4704 31.0194 45.1172H22.9806ZM7.06641 67.2928C6.69713 68.3592 7.27148 69.5488 8.33789 69.8768C8.58398 69.959 8.78906 70 8.994 70C9.85547 70 10.6758 69.4668 10.9629 68.6053L13.2188 61.5234H8.87109L7.06641 67.2928ZM45.1288 61.5234H40.7811L43.037 68.6053C43.3241 69.4668 44.1445 70 45.0059 70C45.2109 70 45.4159 69.959 45.662 69.8768C46.7284 69.5488 47.3027 68.3592 46.9335 67.2928L45.1288 61.5234Z" fill="url(#paint1_linear_104_454)"/>
<defs>
<linearGradient id="paint0_linear_104_454" x1="27.0305" y1="63.6387" x2="27.0305" y2="0" gradientUnits="userSpaceOnUse">
<stop stop-color="#5558FF"/>
<stop offset="1" stop-color="#00C0FF"/>
</linearGradient>
<linearGradient id="paint1_linear_104_454" x1="27" y1="70" x2="27" y2="8.20312" gradientUnits="userSpaceOnUse">
<stop stop-color="#ADDCFF"/>
<stop offset="0.5028" stop-color="#EAF6FF"/>
<stop offset="1" stop-color="#EAF6FF"/>
</linearGradient>
</defs>
</svg>
