<svg width="70" height="70" viewBox="0 0 70 70" fill="none" xmlns="http://www.w3.org/2000/svg">
<path d="M53.5938 12.5547H53.8438V12.3047V10.2539C53.8438 9.2434 54.634 8.45312 55.6445 8.45312H67.9492C68.9597 8.45312 69.75 9.2434 69.75 10.2539V26.7237L41.6219 31.668L41.073 31.7645L41.5101 32.1103C42.3932 32.809 42.9531 33.8933 42.9531 35.1367V43.3398C42.9531 45.5008 41.2626 47.1914 39.1016 47.1914V47.4414V47.6914C41.2626 47.6914 42.9531 49.382 42.9531 51.543V59.7461C42.9531 61.9071 41.2626 63.5977 39.1016 63.5977H30.8984C28.7374 63.5977 27.0469 61.9071 27.0469 59.7461V51.543C27.0469 49.382 28.7374 47.6914 30.8984 47.6914V47.4414V47.1914C28.7374 47.1914 27.0469 45.5008 27.0469 43.3398V35.1367C27.0469 33.8933 27.6068 32.809 28.4899 32.1103L28.927 31.7645L28.3781 31.668L0.25 26.7237V10.2539C0.25 9.2434 1.04028 8.45312 2.05078 8.45312H14.4922C15.5027 8.45312 16.293 9.2434 16.293 10.2539V12.3047V12.5547H16.543H20.6445H20.8945V12.3047V10.2539C20.8945 9.2434 21.6848 8.45312 22.6953 8.45312H47.4414C48.4519 8.45312 49.2422 9.2434 49.2422 10.2539V12.3047V12.5547H49.4922H53.5938ZM18.5938 47.4414V47.6914C20.7547 47.6914 22.4453 49.382 22.4453 51.543V59.7461C22.4453 61.9071 20.7547 63.5977 18.5938 63.5977H10.3906C8.22963 63.5977 6.53906 61.9071 6.53906 59.7461V51.543C6.53906 49.382 8.22963 47.6914 10.3906 47.6914V47.4414V47.1914C8.22963 47.1914 6.53906 45.5008 6.53906 43.3398V35.1367C6.53906 32.9757 8.22963 31.2852 10.3906 31.2852H18.5938C20.7547 31.2852 22.4453 32.9757 22.4453 35.1367V43.3398C22.4453 45.5008 20.7547 47.1914 18.5938 47.1914V47.4414ZM59.7461 47.4414V47.6914C61.9071 47.6914 63.5977 49.382 63.5977 51.543V59.7461C63.5977 61.9071 61.9071 63.5977 59.7461 63.5977H51.543C49.382 63.5977 47.6914 61.9071 47.6914 59.7461V51.543C47.6914 49.382 49.382 47.6914 51.543 47.6914V47.4414V47.1914C49.382 47.1914 47.6914 45.5008 47.6914 43.3398V35.1367C47.6914 32.9757 49.382 31.2852 51.543 31.2852H59.7461C61.9071 31.2852 63.5977 32.9757 63.5977 35.1367V43.3398C63.5977 45.5008 61.9071 47.1914 59.7461 47.1914V47.4414Z" fill="url(#paint0_linear_104_478)" stroke="#97FDAC" stroke-width="0.5"/>
<path d="M0 26.9336V67.9492C0 69.0975 0.902207 70 2.05078 70H67.9492C69.0978 70 70 69.0975 70 67.9492V26.9336H0ZM20.6445 59.7461C20.6445 60.8944 19.7423 61.7969 18.5938 61.7969H10.3906C9.24205 61.7969 8.33984 60.8944 8.33984 59.7461V51.543C8.33984 50.3944 9.24205 49.4922 10.3906 49.4922H18.5938C19.7423 49.4922 20.6445 50.3944 20.6445 51.543V59.7461ZM20.6445 43.3398C20.6445 44.4881 19.7423 45.3906 18.5938 45.3906H10.3906C9.24205 45.3906 8.33984 44.4881 8.33984 43.3398V35.1367C8.33984 33.9881 9.24205 33.0859 10.3906 33.0859H18.5938C19.7423 33.0859 20.6445 33.9881 20.6445 35.1367V43.3398ZM41.1523 59.7461C41.1523 60.8944 40.2501 61.7969 39.1016 61.7969H30.8984C29.7499 61.7969 28.8477 60.8944 28.8477 59.7461V51.543C28.8477 50.3944 29.7499 49.4922 30.8984 49.4922H39.1016C40.2501 49.4922 41.1523 50.3944 41.1523 51.543V59.7461ZM41.1523 43.3398C41.1523 44.4881 40.2501 45.3906 39.1016 45.3906H30.8984C29.7499 45.3906 28.8477 44.4881 28.8477 43.3398V35.1367C28.8477 33.9881 29.7499 33.0859 30.8984 33.0859H39.1016C40.2501 33.0859 41.1523 33.9881 41.1523 35.1367V43.3398ZM61.7969 59.7461C61.7969 60.8944 60.8947 61.7969 59.7461 61.7969H51.543C50.3944 61.7969 49.4922 60.8944 49.4922 59.7461V51.543C49.4922 50.3944 50.3944 49.4922 51.543 49.4922H59.7461C60.8947 49.4922 61.7969 50.3944 61.7969 51.543V59.7461ZM61.7969 43.3398C61.7969 44.4881 60.8947 45.3906 59.7461 45.3906H51.543C50.3944 45.3906 49.4922 44.4881 49.4922 43.3398V35.1367C49.4922 33.9881 50.3944 33.0859 51.543 33.0859H59.7461C60.8947 33.0859 61.7969 33.9881 61.7969 35.1367V43.3398ZM16.543 16.4062H20.6445C21.7771 16.4062 22.6953 15.488 22.6953 14.3555V2.05078C22.6953 0.918203 21.7771 0 20.6445 0H16.543C15.4104 0 14.4922 0.918203 14.4922 2.05078V14.3555C14.4922 15.488 15.4104 16.4062 16.543 16.4062ZM49.4922 16.4062H53.5938C54.7263 16.4062 55.6445 15.488 55.6445 14.3555V2.05078C55.6445 0.918203 54.7263 0 53.5938 0H49.4922C48.3596 0 47.4414 0.918203 47.4414 2.05078V14.3555C47.4414 15.488 48.3596 16.4062 49.4922 16.4062Z" fill="url(#paint1_linear_104_478)"/>
<defs>
<linearGradient id="paint0_linear_104_478" x1="35" y1="63.8477" x2="35" y2="8.20312" gradientUnits="userSpaceOnUse">
<stop stop-color="#C3FFE8"/>
<stop offset="0.9973" stop-color="#F0FFF4"/>
</linearGradient>
<linearGradient id="paint1_linear_104_478" x1="35" y1="70" x2="35" y2="0" gradientUnits="userSpaceOnUse">
<stop stop-color="#00B59C"/>
<stop offset="1" stop-color="#9CFFAC"/>
</linearGradient>
</defs>
</svg>
