<svg width="70" height="70" viewBox="0 0 70 70" fill="none" xmlns="http://www.w3.org/2000/svg">
<path d="M61.157 11.7441L58.7891 12.168L58.2559 8.84297C51.8438 3.12539 43.6611 0 35 0C33.7709 0 32.5514 0.0628906 31.3455 0.188672L29.9414 1.23047L26.9459 0.925586C21.3268 2.24219 16.1232 4.93828 11.7441 8.84297L11.3477 10.6641L8.84297 11.7441C4.93691 16.1232 2.24219 21.3295 0.925586 26.9486L1.64062 29.5312L0.187305 31.3482C0.0628906 32.5527 0 33.7723 0 35C0 43.6611 3.12539 51.8438 8.84297 58.2559L11.4844 58.5156L11.7441 61.157C18.1562 66.8746 26.3389 70 35 70C36.2277 70 37.4473 69.9371 38.6518 69.8127L40.6055 68.4961L43.0582 69.073C48.6746 67.7564 53.8781 65.0617 58.2559 61.157L57.9688 58.9258L61.157 58.2559C65.0617 53.8781 67.7564 48.6746 69.073 43.0582L67.8125 40.8789L69.8113 38.6545C69.9371 37.4486 70 36.2291 70 35C70 26.3389 66.8746 18.1562 61.157 11.7441Z" fill="url(#paint0_linear_104_410)"/>
<path d="M69.8113 38.6545C69.6596 40.1447 69.4121 41.6158 69.073 43.0582C68.5617 42.6521 67.9971 42.3062 67.3846 42.0246C64.9059 40.8844 61.6725 40.7996 58.2805 41.7853C55.2617 42.6631 52.2238 44.3693 49.5578 46.658L61.157 58.2558C60.7045 58.7644 60.2342 59.2635 59.7488 59.7488C59.2635 60.2342 58.7645 60.7045 58.2559 61.157L46.6566 49.5564C42.1353 54.8187 40.101 61.291 41.5639 66.1609C41.8947 67.2601 42.3951 68.2336 43.0582 69.073C41.6145 69.4121 40.1434 69.6596 38.6518 69.8127C38.2402 69.0443 37.8998 68.2185 37.6359 67.3422C36.6297 63.9912 36.8115 60.1139 38.1637 56.1299C39.3039 52.7721 41.2207 49.5291 43.75 46.6498L35 37.8998L11.7441 61.157C11.2355 60.7045 10.7365 60.2342 10.2512 59.7488C9.76582 59.2635 9.2955 58.7644 8.84297 58.2558L32.1002 35L23.3516 26.2527C18.4023 30.5963 12.507 33.0053 7.1832 33.0053C5.26504 33.0053 3.4207 32.6922 1.72129 32.0455C1.18672 31.8418 0.675388 31.6094 0.187302 31.3482C0.340427 29.8594 0.587888 28.3896 0.925583 26.9486C1.5914 27.4709 2.34472 27.8947 3.18144 28.2133C8.0582 30.0699 14.9283 28.0724 20.4422 23.342L8.84297 11.7441C9.2955 11.2355 9.76582 10.7365 10.2512 10.2512C10.7365 9.76581 11.2355 9.2955 11.7441 8.84296L23.342 20.4422C25.7482 17.6408 27.4996 14.4443 28.3391 11.2711C29.2728 7.7369 29.0322 4.44335 27.6596 1.99745C27.4477 1.61874 27.2098 1.2619 26.9459 0.925574C28.3869 0.587878 29.8566 0.340417 31.3455 0.18866C33.1475 3.541 33.4893 7.83944 32.3039 12.3197C31.2853 16.1738 29.1621 20.0279 26.2514 23.3502L35 32.1002L58.2559 8.84296C58.7645 9.2955 59.2635 9.76581 59.7488 10.2512C60.2342 10.7365 60.7045 11.2355 61.157 11.7441L37.8998 35L46.6484 43.7486C49.8244 40.9555 53.4146 38.9293 57.1348 37.8465C61.4756 36.5846 65.7248 36.7459 69.1004 38.299C69.3424 38.4098 69.5789 38.5287 69.8113 38.6545Z" fill="url(#paint1_linear_104_410)"/>
<defs>
<linearGradient id="paint0_linear_104_410" x1="35" y1="70" x2="35" y2="0" gradientUnits="userSpaceOnUse">
<stop stop-color="#5558FF"/>
<stop offset="1" stop-color="#00C0FF"/>
</linearGradient>
<linearGradient id="paint1_linear_104_410" x1="34.9993" y1="69.8127" x2="34.9993" y2="0.18866" gradientUnits="userSpaceOnUse">
<stop stop-color="#ADDCFF"/>
<stop offset="0.5028" stop-color="#EAF6FF"/>
<stop offset="1" stop-color="#EAF6FF"/>
</linearGradient>
</defs>
</svg>
