<svg width="62" height="70" viewBox="0 0 62 70" fill="none" xmlns="http://www.w3.org/2000/svg">
<path d="M49.4535 8.20312V2.05078C49.4535 0.902207 48.5513 0 47.4027 0H6.38707C2.98264 0 0.234726 2.74791 0.234726 6.15234V63.8477C0.234726 64.996 1.13693 65.8984 2.28551 65.8984C3.43408 65.8984 4.33629 64.996 4.33629 63.8477C4.33629 62.6991 5.2385 61.7969 6.38707 61.7969L6.3049 59.7461H49.4535V24.6094L53.0423 17.1641L49.4535 8.20312Z" fill="url(#paint0_linear_104_486)"/>
<path d="M57.8593 16.2668L57.7655 16.4063L57.8593 16.5457L61.2202 21.546C61.5821 22.1272 61.6169 22.8089 61.2928 23.4231C60.9666 24.0003 60.3529 24.3594 59.7075 24.3594H49.7036V8.45312H59.7075C60.3529 8.45312 60.9666 8.81192 61.2927 9.38928C61.6168 10.0037 61.582 10.6853 61.2202 11.2663L57.8593 16.2668ZM49.2035 59.7461C49.2035 60.7416 48.3982 61.5469 47.4027 61.5469C46.1354 61.5469 45.1019 62.5779 45.1019 63.8477C45.1019 65.1174 46.1352 66.1484 47.4027 66.1484C48.3982 66.1484 49.2035 66.9538 49.2035 67.9492C49.2035 68.9447 48.3982 69.75 47.4027 69.75H6.38707C3.1326 69.75 0.484726 67.1021 0.484726 63.8477C0.484726 60.5932 3.1326 57.9453 6.38707 57.9453H47.4027C48.3982 57.9453 49.2035 58.7506 49.2035 59.7461ZM35.098 28.4609H14.5902C13.5947 28.4609 12.7894 27.6556 12.7894 26.6602V10.2539C12.7894 9.25844 13.5947 8.45312 14.5902 8.45312H35.098C36.0935 8.45312 36.8988 9.25844 36.8988 10.2539V26.6602C36.8988 27.6556 36.0935 28.4609 35.098 28.4609ZM35.098 48.9688H14.5902C13.5947 48.9688 12.7894 48.1634 12.7894 47.168C12.7894 46.1725 13.5947 45.3672 14.5902 45.3672H35.098C36.0935 45.3672 36.8988 46.1725 36.8988 47.168C36.8988 48.1634 36.0935 48.9688 35.098 48.9688Z" fill="url(#paint1_linear_104_486)" stroke="#FFA58D" stroke-width="0.5"/>
<defs>
<linearGradient id="paint0_linear_104_486" x1="26.6385" y1="65.8984" x2="26.6385" y2="0" gradientUnits="userSpaceOnUse">
<stop stop-color="#FD3A84"/>
<stop offset="1" stop-color="#FFA68D"/>
</linearGradient>
<linearGradient id="paint1_linear_104_486" x1="31" y1="70" x2="31" y2="8.20312" gradientUnits="userSpaceOnUse">
<stop stop-color="#FFC2CC"/>
<stop offset="1" stop-color="#FFF2F4"/>
</linearGradient>
</defs>
</svg>
