<svg width="70" height="70" viewBox="0 0 70 70" fill="none" xmlns="http://www.w3.org/2000/svg">
<path d="M49.4512 46.7577C49.2461 45.6504 48.0977 44.9121 47.0314 45.1582C45.9238 45.3633 45.2267 46.4704 45.4318 47.578L47.4004 57.4219H22.5586L24.5684 47.578C24.7734 46.4704 24.0762 45.3633 22.9688 45.1582C21.8615 44.953 20.754 45.6504 20.549 46.7577L16.4062 67.498C16.1602 68.6053 16.8984 69.6717 18.0059 69.9178C18.1288 69.9178 18.293 69.9588 18.4159 69.9588C19.3591 69.9588 20.2206 69.2616 20.4256 68.3182L21.7383 61.5234H48.2207L49.5332 68.3592C49.7383 69.3436 50.5996 70 51.543 70C51.6662 70 51.8301 70 51.953 69.959C53.0605 69.7539 53.7577 68.6465 53.5526 67.5389L49.4512 46.7577ZM67.9492 0H2.05078C0.902207 0 0 0.902207 0 2.05078V38.9648L35.1367 45.1172L70 38.9648V2.05078C70 0.902207 69.0978 0 67.9492 0Z" fill="url(#paint0_linear_104_430)"/>
<path d="M61.7969 38.9648V30.7617C61.7969 29.6282 60.8796 28.7109 59.7461 28.7109H47.4414C46.3079 28.7109 45.3906 29.6282 45.3906 30.7617V38.9648H0V47.168C0 48.3163 0.902207 49.2188 2.05078 49.2188H67.9492C69.0978 49.2188 70 48.3163 70 47.168V38.9648H61.7969Z" fill="url(#paint1_linear_104_430)"/>
<defs>
<linearGradient id="paint0_linear_104_430" x1="35" y1="70" x2="35" y2="0" gradientUnits="userSpaceOnUse">
<stop stop-color="#5558FF"/>
<stop offset="1" stop-color="#00C0FF"/>
</linearGradient>
<linearGradient id="paint1_linear_104_430" x1="35" y1="49.2188" x2="35" y2="28.7109" gradientUnits="userSpaceOnUse">
<stop stop-color="#ADDCFF"/>
<stop offset="0.5028" stop-color="#EAF6FF"/>
<stop offset="1" stop-color="#EAF6FF"/>
</linearGradient>
</defs>
</svg>
