<svg width="58" height="70" viewBox="0 0 58 70" fill="none" xmlns="http://www.w3.org/2000/svg">
<path d="M56.1523 56.9979L49.3846 47.4824L32.2919 43.1475C33.9494 42.6204 35.1523 41.0672 35.1523 39.2383C35.1523 36.9772 33.3139 35.1367 31.0508 35.1367C28.7877 35.1367 26.9492 36.9772 26.9492 39.2383C26.9492 40.8192 27.8486 42.1935 29.1627 42.8779L8.61537 47.4824L1.84766 56.9979C0.822266 58.3514 0.289062 60.0332 0.289062 61.7969C0.289062 66.3085 3.98061 70 8.49219 70H49.5078C54.0194 70 57.7109 66.3085 57.7109 61.7969C57.7109 60.0332 57.1777 58.3924 56.1523 56.9979Z" fill="url(#paint0_linear_104_422)"/>
<path d="M36.7031 30.3788V30.5386L36.7958 30.6688L48.4147 46.9824H46.8416H46.8213L46.801 46.9841C44.7146 47.1543 43.5537 48.1855 42.506 49.116C42.4512 49.1646 42.3967 49.213 42.3424 49.261C41.2658 50.2125 40.235 51.043 38.2285 51.043C36.1079 51.043 35.0706 50.1314 33.931 49.1185L33.9127 49.1022C32.7522 48.0705 31.482 46.9414 29 46.9414C26.518 46.9414 25.2478 48.0706 24.0873 49.1022L24.0689 49.1185C22.9294 50.1314 21.892 51.043 19.7715 51.043C17.765 51.043 16.7342 50.2125 15.6575 49.261C15.6032 49.213 15.5487 49.1646 15.4939 49.116C14.4463 48.1855 13.2853 47.1543 11.199 46.9841L11.1787 46.9824H11.1583H9.58532L21.2041 30.6688L21.2969 30.5386V30.3788V11.9354V11.5789L20.9599 11.4627C18.7786 10.7106 17.1953 8.60066 17.1953 6.15234C17.1953 3.02406 19.7195 0.5 22.8476 0.5H35.1523C38.2805 0.5 40.8047 3.02406 40.8047 6.15234C40.8047 8.60066 39.2214 10.7106 37.0401 11.4627L36.7031 11.5789V11.9354V30.3788ZM28.5 39.2383C28.5 40.647 29.642 41.7891 31.0508 41.7891C32.4595 41.7891 33.6015 40.647 33.6015 39.2383C33.6015 37.8292 32.4594 36.6875 31.0508 36.6875C29.6421 36.6875 28.5 37.8292 28.5 39.2383ZM25.3984 59.7461C25.3984 58.8897 26.0928 58.1953 26.9492 58.1953C27.8056 58.1953 28.5 58.8897 28.5 59.7461C28.5 60.6025 27.8056 61.2969 26.9492 61.2969C26.0928 61.2969 25.3984 60.6025 25.3984 59.7461Z" fill="url(#paint1_linear_104_422)" stroke="#41D4A3"/>
<defs>
<linearGradient id="paint0_linear_104_422" x1="29" y1="70" x2="29" y2="35.1367" gradientUnits="userSpaceOnUse">
<stop stop-color="#00B59C"/>
<stop offset="1" stop-color="#9CFFAC"/>
</linearGradient>
<linearGradient id="paint1_linear_104_422" x1="29" y1="61.7969" x2="29" y2="0" gradientUnits="userSpaceOnUse">
<stop stop-color="#C3FFE8"/>
<stop offset="0.9973" stop-color="#F0FFF4"/>
</linearGradient>
</defs>
</svg>
