<svg width="62" height="70" viewBox="0 0 62 70" fill="none" xmlns="http://www.w3.org/2000/svg">
<path d="M23.2324 32.2789L23.2325 32.2785C23.4398 31.8466 23.4647 31.351 23.3065 30.9004C23.144 30.4492 22.8131 30.0803 22.3813 29.8749C22.3812 29.8748 22.3812 29.8748 22.3812 29.8748L14.9599 26.3463L23.2324 32.2789ZM23.2324 32.2789L19.7037 39.6604C19.7037 39.6605 19.7037 39.6606 19.7036 39.6606C19.3941 40.3058 18.7508 40.684 18.0787 40.684C17.8188 40.684 17.5551 40.6279 17.3049 40.51L23.2324 32.2789ZM9.0319 34.5793L9.03173 34.5796C8.82449 35.0116 8.79955 35.5071 8.95778 35.9577C9.12006 36.4089 9.45104 36.7779 9.88302 36.9833L17.3042 40.5097L9.0319 34.5793ZM9.0319 34.5793L12.5605 27.1956C12.5606 27.1956 12.5606 27.1956 12.5606 27.1955M9.0319 34.5793L12.5606 27.1955M12.5606 27.1955C12.9894 26.301 14.0619 25.9224 14.9594 26.3461L12.5606 27.1955ZM49.8211 38.1185L49.8205 38.1175C49.2439 37.307 49.4336 36.1835 50.2422 35.6065C52.475 34.0217 53.8082 31.4446 53.8082 28.7117C53.8082 24.0496 50.0152 20.2588 45.3552 20.2588H32.3658C31.3704 20.2588 30.5651 19.4535 30.5651 18.458C30.5651 17.4626 31.3704 16.6573 32.3657 16.6572H45.3551C52.0021 16.6572 57.4095 22.0646 57.4095 28.7116C57.4095 32.6077 55.5102 36.283 52.3317 38.5432C52.0154 38.7681 51.6501 38.8756 51.287 38.8756C50.7233 38.8756 50.1685 38.6115 49.8211 38.1185ZM34.8494 53.0532L34.8485 53.0531L6.13813 48.9516C5.1531 48.811 4.46745 47.8982 4.60789 46.9135C4.75241 45.9282 5.68717 45.243 6.64287 45.3848L6.64422 45.385L35.3546 49.4865C36.3397 49.6272 37.0254 50.5403 36.8848 51.5248C36.7544 52.4235 35.9839 53.0705 35.1056 53.0705C35.0191 53.0705 34.9313 53.0652 34.8494 53.0532ZM53.46 57.9255L53.5071 57.9456H53.5582H55.6089C56.2872 57.9456 56.9024 58.3376 57.2323 58.9584C57.2328 58.9592 57.2332 58.96 57.2336 58.9609L61.3295 67.1525C61.33 67.1535 61.3304 67.1545 61.3309 67.1554C61.5864 67.7053 61.5786 68.3893 61.265 68.8787C60.8973 69.4291 60.3165 69.75 59.7105 69.75H2.28976C1.68362 69.75 1.10294 69.4291 0.735277 68.8787C0.421557 68.3893 0.413769 67.7053 0.669156 67.1554C0.669606 67.1544 0.670057 67.1535 0.670509 67.1525L4.76638 58.9608C4.76682 58.96 4.76727 58.9591 4.76771 58.9583C5.09746 58.3376 5.71282 57.9456 6.3911 57.9456H33.0507H33.1018L33.1489 57.9255L43.3045 53.5925L53.46 57.9255ZM22.257 11.0554L22.2568 11.0553C21.3635 10.6245 20.9873 9.552 21.4162 8.6569L21.4163 8.65668L24.945 1.27506C25.3742 0.379447 26.4392 -0.00392128 27.3479 0.427456C27.3479 0.42747 27.348 0.427484 27.348 0.427498L34.7292 3.95378C34.7292 3.9538 34.7293 3.95381 34.7293 3.95383C35.6228 4.38134 36.0059 5.4543 35.5805 6.35075L32.056 13.7741C31.8482 14.209 31.4788 14.5415 31.0248 14.7016L31.0244 14.7017C30.832 14.77 30.6281 14.8035 30.4272 14.8035C30.1596 14.8035 29.8886 14.7436 29.6432 14.6244L29.6428 14.6242L22.257 11.0554ZM43.3045 42.8169C41.1795 42.8169 39.453 41.0885 39.453 38.9655C39.453 36.8424 41.1795 35.114 43.3045 35.114C45.4294 35.114 47.1559 36.8424 47.1559 38.9655C47.1559 41.0885 45.4294 42.8169 43.3045 42.8169Z" fill="url(#paint0_linear_104_445)" stroke="#FFD300" stroke-width="0.5"/>
<path d="M35.0014 12.9167L20.1896 5.81713C19.1723 5.33452 17.9466 5.76504 17.462 6.79041L8.64213 25.3292C8.15351 26.3507 8.58608 27.5743 9.60748 28.0608L24.4153 35.1143C24.6957 35.2484 24.9961 35.3146 25.3006 35.3146C25.5329 35.3146 25.7651 35.2766 25.9855 35.1965C26.4982 35.0163 26.9187 34.6377 27.151 34.147L35.9668 15.6503C36.4552 14.6289 36.0227 13.4053 35.0014 12.9167ZM50.5642 31.7468C48.6364 29.7783 46.0524 28.7117 43.3044 28.7117C37.6444 28.7117 33.0507 33.3054 33.0507 38.9655V57.6955H53.5582V38.9655C53.5582 36.1764 52.4918 33.6335 50.5642 31.7468ZM43.3044 41.0162C42.1719 41.0162 41.2537 40.098 41.2537 38.9655C41.2537 37.8326 42.1719 36.9147 43.3044 36.9147C44.437 36.9147 45.3552 37.8326 45.3552 38.9655C45.3552 40.098 44.437 41.0162 43.3044 41.0162Z" fill="url(#paint1_linear_104_445)"/>
<defs>
<linearGradient id="paint0_linear_104_445" x1="31" y1="70" x2="31" y2="6.91414e-06" gradientUnits="userSpaceOnUse">
<stop stop-color="#FFE59A"/>
<stop offset="1" stop-color="#FFFFD5"/>
</linearGradient>
<linearGradient id="paint1_linear_104_445" x1="30.9996" y1="57.6955" x2="30.9996" y2="5.61944" gradientUnits="userSpaceOnUse">
<stop stop-color="#FD5900"/>
<stop offset="1" stop-color="#FFDE00"/>
</linearGradient>
</defs>
</svg>
